{"asset":{"version":"2.0","generator":"Blockbench 4.11.2 glTF exporter"},"scenes":[{"nodes":[14],"name":"blockbench_export"}],"scene":0,"nodes":[{"translation":[2.375,1.375,-2.125],"name":"retro","mesh":0},{"translation":[-2.375,1.375,-2.125],"name":"retro","mesh":1},{"rotation":[0,-0.7071067811865475,0,0.7071067811865476],"translation":[0.6875,3.375,-1.34375],"name":"grid","mesh":2},{"translation":[0,0,0.375],"name":"jip","mesh":3},{"rotation":[-0.4999999999999999,0.5,-0.5,0.5000000000000001],"translation":[0,1.40625,4.34375],"name":"estepe","mesh":4},{"name":"corpo","children":[2,3,4]},{"rotation":[-0.5107884560572349,0.5107884560572352,0.4889735710226736,0.4889735710226746],"name":"roda","mesh":5},{"translation":[1.7483552631578947,-0.2812499999999999,-3.90625],"name":"rodaR1","children":[6]},{"rotation":[0,0,0.7071067811865475,0.7071067811865476],"name":"roda","mesh":6},{"translation":[1.7483552631578947,-0.2812499999999999,2.28125],"name":"rodaR2","children":[8]},{"rotation":[-0.5107884560572349,-0.5107884560572352,-0.4889735710226736,0.4889735710226746],"name":"roda","mesh":7},{"translation":[-1.7483552631578947,-0.2812499999999999,-3.90625],"name":"rodaL1","children":[10]},{"rotation":[0,0,-0.7071067811865475,0.7071067811865476],"name":"roda","mesh":8},{"translation":[-1.7483552631578947,-0.2812499999999999,2.28125],"name":"rodaL2","children":[12]},{"children":[0,1,5,7,9,11,13]}],"bufferViews":[{"buffer":0,"byteOffset":0,"byteLength":672,"target":34962,"byteStride":12},{"buffer":0,"byteOffset":672,"byteLength":672,"target":34962,"byteStride":12},{"buffer":0,"byteOffset":1344,"byteLength":448,"target":34962,"byteStride":8},{"buffer":0,"byteOffset":1792,"byteLength":168,"target":34963},{"buffer":0,"byteOffset":1960,"byteLength":672,"target":34962,"byteStride":12},{"buffer":0,"byteOffset":2632,"byteLength":672,"target":34962,"byteStride":12},{"buffer":0,"byteOffset":3304,"byteLength":448,"target":34962,"byteStride":8},{"buffer":0,"byteOffset":3752,"byteLength":168,"target":34963},{"buffer":0,"byteOffset":3920,"byteLength":4608,"target":34962,"byteStride":12},{"buffer":0,"byteOffset":8528,"byteLength":4608,"target":34962,"byteStride":12},{"buffer":0,"byteOffset":13136,"byteLength":3072,"target":34962,"byteStride":8},{"buffer":0,"byteOffset":16208,"byteLength":1152,"target":34963},{"buffer":0,"byteOffset":17360,"byteLength":8916,"target":34962,"byteStride":12},{"buffer":0,"byteOffset":26276,"byteLength":8916,"target":34962,"byteStride":12},{"buffer":0,"byteOffset":35192,"byteLength":5944,"target":34962,"byteStride":8},{"buffer":0,"byteOffset":41136,"byteLength":2156,"target":34963},{"buffer":0,"byteOffset":43292,"byteLength":2016,"target":34962,"byteStride":12},{"buffer":0,"byteOffset":45308,"byteLength":2016,"target":34962,"byteStride":12},{"buffer":0,"byteOffset":47324,"byteLength":1344,"target":34962,"byteStride":8},{"buffer":0,"byteOffset":48668,"byteLength":432,"target":34963},{"buffer":0,"byteOffset":49100,"byteLength":2016,"target":34962,"byteStride":12},{"buffer":0,"byteOffset":51116,"byteLength":2016,"target":34962,"byteStride":12},{"buffer":0,"byteOffset":53132,"byteLength":1344,"target":34962,"byteStride":8},{"buffer":0,"byteOffset":54476,"byteLength":432,"target":34963},{"buffer":0,"byteOffset":54908,"byteLength":2016,"target":34962,"byteStride":12},{"buffer":0,"byteOffset":56924,"byteLength":2016,"target":34962,"byteStride":12},{"buffer":0,"byteOffset":58940,"byteLength":1344,"target":34962,"byteStride":8},{"buffer":0,"byteOffset":60284,"byteLength":432,"target":34963},{"buffer":0,"byteOffset":60716,"byteLength":2016,"target":34962,"byteStride":12},{"buffer":0,"byteOffset":62732,"byteLength":2016,"target":34962,"byteStride":12},{"buffer":0,"byteOffset":64748,"byteLength":1344,"target":34962,"byteStride":8},{"buffer":0,"byteOffset":66092,"byteLength":432,"target":34963},{"buffer":0,"byteOffset":66524,"byteLength":2016,"target":34962,"byteStride":12},{"buffer":0,"byteOffset":68540,"byteLength":2016,"target":34962,"byteStride":12},{"buffer":0,"byteOffset":70556,"byteLength":1344,"target":34962,"byteStride":8},{"buffer":0,"byteOffset":71900,"byteLength":432,"target":34963},{"buffer":0,"byteOffset":72332,"byteLength":20},{"buffer":0,"byteOffset":72352,"byteLength":80},{"buffer":0,"byteOffset":72432,"byteLength":20},{"buffer":0,"byteOffset":72452,"byteLength":80},{"buffer":0,"byteOffset":72532,"byteLength":20},{"buffer":0,"byteOffset":72552,"byteLength":60},{"buffer":0,"byteOffset":72612,"byteLength":20},{"buffer":0,"byteOffset":72632,"byteLength":80},{"buffer":0,"byteOffset":72712,"byteLength":20},{"buffer":0,"byteOffset":72732,"byteLength":60},{"buffer":0,"byteOffset":72792,"byteLength":20},{"buffer":0,"byteOffset":72812,"byteLength":80},{"buffer":0,"byteOffset":72892,"byteLength":20},{"buffer":0,"byteOffset":72912,"byteLength":60},{"buffer":0,"byteOffset":72972,"byteLength":20},{"buffer":0,"byteOffset":72992,"byteLength":80},{"buffer":0,"byteOffset":73072,"byteLength":20},{"buffer":0,"byteOffset":73092,"byteLength":60}],"buffers":[{"byteLength":73152,"uri":"data:application/octet-stream;base64,"}],"accessors":[{"bufferView":0,"componentType":5126,"count":56,"max":[-0.1875,0.5625,0],"min":[-0.75,0.125,-0.1875],"type":"VEC3"},{"bufferView":1,"componentType":5126,"count":56,"max":[1,1,1],"min":[-1,-1,-1],"type":"VEC3"},{"bufferView":2,"componentType":5126,"count":56,"max":[0.998046875,0.916015625],"min":[0.966796875,0.884765625],"type":"VEC2"},{"bufferView":3,"componentType":5123,"count":84,"max":[55],"min":[0],"type":"SCALAR"},{"bufferView":4,"componentType":5126,"count":56,"max":[0.75,0.5625,0],"min":[0.1875,0.125,-0.1875],"type":"VEC3"},{"bufferView":5,"componentType":5126,"count":56,"max":[1,1,1],"min":[-1,-1,-1],"type":"VEC3"},{"bufferView":6,"componentType":5126,"count":56,"max":[0.998046875,0.916015625],"min":[0.966796875,0.884765625],"type":"VEC2"},{"bufferView":7,"componentType":5123,"count":84,"max":[55],"min":[0],"type":"SCALAR"},{"bufferView":8,"componentType":5126,"count":384,"max":[5,0.125,2.1875],"min":[-0.0625,-0.125,-0.8125],"type":"VEC3"},{"bufferView":9,"componentType":5126,"count":384,"max":[1,1,1],"min":[-1,-1,-1],"type":"VEC3"},{"bufferView":10,"componentType":5126,"count":384,"max":[0.615234375,0.560546875],"min":[0,0.009765625],"type":"VEC2"},{"bufferView":11,"componentType":5123,"count":576,"max":[383],"min":[0],"type":"SCALAR"},{"bufferView":12,"componentType":5126,"count":743,"max":[2,3.25,3.8125],"min":[-2,0,-5.68692684173584],"type":"VEC3"},{"bufferView":13,"componentType":5126,"count":743,"max":[1,1,1],"min":[-1,-1,-1],"type":"VEC3"},{"bufferView":14,"componentType":5126,"count":743,"max":[1,0.45703125],"min":[0,0],"type":"VEC2"},{"bufferView":15,"componentType":5123,"count":1077,"max":[742],"min":[0],"type":"SCALAR"},{"bufferView":16,"componentType":5126,"count":168,"max":[0.90625,0.640625,0.90625],"min":[-0.90625,-0.140625,-0.90625],"type":"VEC3"},{"bufferView":17,"componentType":5126,"count":168,"max":[1,1,1],"min":[-1,-1,-1],"type":"VEC3"},{"bufferView":18,"componentType":5126,"count":168,"max":[1,1],"min":[0.8822035193443298,0.92578125],"type":"VEC2"},{"bufferView":19,"componentType":5123,"count":216,"max":[167],"min":[0],"type":"SCALAR"},{"bufferView":20,"componentType":5126,"count":168,"max":[0.90625,0.5139802694320679,0.90625],"min":[-0.90625,-0.26726973056793213,-0.90625],"type":"VEC3"},{"bufferView":21,"componentType":5126,"count":168,"max":[1,1,1],"min":[-1,-1,-1],"type":"VEC3"},{"bufferView":22,"componentType":5126,"count":168,"max":[1,1],"min":[0.8822035193443298,0.8505859375],"type":"VEC2"},{"bufferView":23,"componentType":5123,"count":216,"max":[167],"min":[0],"type":"SCALAR"},{"bufferView":24,"componentType":5126,"count":168,"max":[0.90625,0.5139802694320679,0.90625],"min":[-0.90625,-0.26726973056793213,-0.90625],"type":"VEC3"},{"bufferView":25,"componentType":5126,"count":168,"max":[1,1,1],"min":[-1,-1,-1],"type":"VEC3"},{"bufferView":26,"componentType":5126,"count":168,"max":[1,1],"min":[0.8822035193443298,0.8525390625],"type":"VEC2"},{"bufferView":27,"componentType":5123,"count":216,"max":[167],"min":[0],"type":"SCALAR"},{"bufferView":28,"componentType":5126,"count":168,"max":[0.90625,0.5139802694320679,0.90625],"min":[-0.90625,-0.26726973056793213,-0.90625],"type":"VEC3"},{"bufferView":29,"componentType":5126,"count":168,"max":[1,1,1],"min":[-1,-1,-1],"type":"VEC3"},{"bufferView":30,"componentType":5126,"count":168,"max":[1,1],"min":[0.8822035193443298,0.8505859375],"type":"VEC2"},{"bufferView":31,"componentType":5123,"count":216,"max":[167],"min":[0],"type":"SCALAR"},{"bufferView":32,"componentType":5126,"count":168,"max":[0.90625,0.5139802694320679,0.90625],"min":[-0.90625,-0.26726973056793213,-0.90625],"type":"VEC3"},{"bufferView":33,"componentType":5126,"count":168,"max":[1,1,1],"min":[-1,-1,-1],"type":"VEC3"},{"bufferView":34,"componentType":5126,"count":168,"max":[1,1],"min":[0.8822035193443298,0.8525390625],"type":"VEC2"},{"bufferView":35,"componentType":5123,"count":216,"max":[167],"min":[0],"type":"SCALAR"},{"bufferView":36,"componentType":5126,"count":5,"max":[0.5],"min":[0],"type":"SCALAR"},{"bufferView":37,"componentType":5126,"count":5,"max":[0.004363267682492733,0,0.004363309126347303,1],"min":[-0.004363309126347303,-0.000019038467144127935,-0.004363267682492733,0.9999809861183167],"type":"VEC4"},{"bufferView":38,"componentType":5126,"count":5,"max":[0.5],"min":[0],"type":"SCALAR"},{"bufferView":39,"componentType":5126,"count":5,"max":[0,0,0,1],"min":[-1,0,0,-1],"type":"VEC4"},{"bufferView":40,"componentType":5126,"count":5,"max":[0.5],"min":[0],"type":"SCALAR"},{"bufferView":41,"componentType":5126,"count":5,"max":[1.7483552694320679,-0.21875,-3.90625],"min":[1.7483552694320679,-0.28125,-3.90625],"type":"VEC3"},{"bufferView":42,"componentType":5126,"count":5,"max":[0.5],"min":[0],"type":"SCALAR"},{"bufferView":43,"componentType":5126,"count":5,"max":[0,0,0,1],"min":[-1,0,0,-1],"type":"VEC4"},{"bufferView":44,"componentType":5126,"count":5,"max":[0.5],"min":[0],"type":"SCALAR"},{"bufferView":45,"componentType":5126,"count":5,"max":[1.7483552694320679,-0.21875,2.28125],"min":[1.7483552694320679,-0.28125,2.28125],"type":"VEC3"},{"bufferView":46,"componentType":5126,"count":5,"max":[0.5],"min":[0],"type":"SCALAR"},{"bufferView":47,"componentType":5126,"count":5,"max":[0,0,0,1],"min":[-1,0,0,-1],"type":"VEC4"},{"bufferView":48,"componentType":5126,"count":5,"max":[0.5],"min":[0],"type":"SCALAR"},{"bufferView":49,"componentType":5126,"count":5,"max":[-1.7483552694320679,-0.21875,-3.90625],"min":[-1.7483552694320679,-0.28125,-3.90625],"type":"VEC3"},{"bufferView":50,"componentType":5126,"count":5,"max":[0.5],"min":[0],"type":"SCALAR"},{"bufferView":51,"componentType":5126,"count":5,"max":[0,0,0,1],"min":[-1,0,0,-1],"type":"VEC4"},{"bufferView":52,"componentType":5126,"count":5,"max":[0.5],"min":[0],"type":"SCALAR"},{"bufferView":53,"componentType":5126,"count":5,"max":[-1.7483552694320679,-0.21875,2.28125],"min":[-1.7483552694320679,-0.28125,2.28125],"type":"VEC3"}],"materials":[{"pbrMetallicRoughness":{"metallicFactor":0,"roughnessFactor":1,"baseColorTexture":{"index":0}},"alphaMode":"MASK","alphaCutoff":0.05,"doubleSided":true}],"textures":[{"sampler":0,"source":0,"name":"jip.png"}],"samplers":[{"magFilter":9728,"minFilter":9728,"wrapS":33071,"wrapT":33071}],"images":[{"mimeType":"image/png","uri":"data:image/png;base64,"}],"meshes":[{"primitives":[{"mode":4,"attributes":{"POSITION":0,"NORMAL":1,"TEXCOORD_0":2},"indices":3,"material":0}]},{"primitives":[{"mode":4,"attributes":{"POSITION":4,"NORMAL":5,"TEXCOORD_0":6},"indices":7,"material":0}]},{"primitives":[{"mode":4,"attributes":{"POSITION":8,"NORMAL":9,"TEXCOORD_0":10},"indices":11,"material":0}]},{"primitives":[{"mode":4,"attributes":{"POSITION":12,"NORMAL":13,"TEXCOORD_0":14},"indices":15,"material":0}]},{"primitives":[{"mode":4,"attributes":{"POSITION":16,"NORMAL":17,"TEXCOORD_0":18},"indices":19,"material":0}]},{"primitives":[{"mode":4,"attributes":{"POSITION":20,"NORMAL":21,"TEXCOORD_0":22},"indices":23,"material":0}]},{"primitives":[{"mode":4,"attributes":{"POSITION":24,"NORMAL":25,"TEXCOORD_0":26},"indices":27,"material":0}]},{"primitives":[{"mode":4,"attributes":{"POSITION":28,"NORMAL":29,"TEXCOORD_0":30},"indices":31,"material":0}]},{"primitives":[{"mode":4,"attributes":{"POSITION":32,"NORMAL":33,"TEXCOORD_0":34},"indices":35,"material":0}]}],"animations":[{"name":"run","samplers":[{"input":36,"output":37,"interpolation":"LINEAR"},{"input":38,"output":39,"interpolation":"LINEAR"},{"input":40,"output":41,"interpolation":"LINEAR"},{"input":42,"output":43,"interpolation":"LINEAR"},{"input":44,"output":45,"interpolation":"LINEAR"},{"input":46,"output":47,"interpolation":"LINEAR"},{"input":48,"output":49,"interpolation":"LINEAR"},{"input":50,"output":51,"interpolation":"LINEAR"},{"input":52,"output":53,"interpolation":"LINEAR"}],"channels":[{"sampler":0,"target":{"node":5,"path":"rotation"}},{"sampler":1,"target":{"node":7,"path":"rotation"}},{"sampler":2,"target":{"node":7,"path":"translation"}},{"sampler":3,"target":{"node":9,"path":"rotation"}},{"sampler":4,"target":{"node":9,"path":"translation"}},{"sampler":5,"target":{"node":11,"path":"rotation"}},{"sampler":6,"target":{"node":11,"path":"translation"}},{"sampler":7,"target":{"node":13,"path":"rotation"}},{"sampler":8,"target":{"node":13,"path":"translation"}}]}]}